<?xml version="1.0" encoding="UTF-8"?>
<svg width="24" height="24" viewBox="0 0 24 24" fill="none" xmlns="http://www.w3.org/2000/svg">
    <!-- Adulto 1 -->
    <circle cx="8" cy="7" r="3" fill="#1E40AF"/>
    <path d="M8 11C5.24 11 3 13.24 3 16V18H13V16C13 13.24 10.76 11 8 11Z" fill="#1E40AF"/>
    
    <!-- Niño -->
    <circle cx="16" cy="6" r="2" fill="#1E40AF"/>
    <path d="M16 9C14.34 9 13 10.34 13 12V13H19V12C19 10.34 17.66 9 16 9Z" fill="#1E40AF"/>
    
    <!-- Adulto 2 -->
    <circle cx="16" cy="16" r="2" fill="#1E40AF"/>
    <path d="M16 19C14.34 19 13 20.34 13 22V23H19V22C19 20.34 17.66 19 16 19Z" fill="#1E40AF"/>
</svg> 